<svg width="150" height="150" viewBox="0 0 150 150" fill="none" xmlns="http://www.w3.org/2000/svg">
<path d="M125 87.5L122.456 64.6062C120.694 48.7437 119.812 40.8062 114.475 36.0312C109.125 31.25 101.15 31.25 85.1875 31.25H64.8125C48.85 31.25 40.8688 31.25 35.525 36.0312C30.1875 40.8062 29.3063 48.7437 27.5438 64.6062L25 87.5M71.875 12.5H87.5M87.5 12.5H103.125M87.5 12.5V31.25M104.169 87.5H45.8313C32.1688 87.5 25.3375 87.5 20.4938 90.8938C18.7063 92.1438 17.1437 93.7063 15.8937 95.4938C12.5 100.338 12.5 107.169 12.5 120.831C12.5 127.663 12.5 131.081 14.1937 133.5C14.8229 134.404 15.5917 135.173 16.5 135.806C18.9188 137.5 22.3375 137.5 29.1687 137.5H120.831C127.663 137.5 131.081 137.5 133.5 135.806C134.404 135.173 135.173 134.404 135.806 133.5C137.5 131.081 137.5 127.663 137.5 120.831C137.5 107.169 137.5 100.338 134.106 95.4938C132.856 93.7063 131.294 92.1438 129.506 90.8938C124.663 87.5 117.831 87.5 104.169 87.5Z" stroke="white" stroke-width="5" stroke-linecap="round" stroke-linejoin="round"/>
<path d="M56.25 109.375L62.475 113.525C64.5293 114.895 66.9433 115.626 69.4125 115.625H80.5875C83.0567 115.626 85.4707 114.895 87.525 113.525L93.75 109.375M50 50H62.5" stroke="white" stroke-width="5" stroke-linecap="round" stroke-linejoin="round"/>
</svg>
