<svg width="150" height="150" viewBox="0 0 150 150" fill="none" xmlns="http://www.w3.org/2000/svg">
<path d="M125 112.5V62.5C125 50.7125 125 44.8187 121.337 41.1625C117.675 37.5 111.788 37.5 100 37.5H25V112.5C25 124.281 25 130.175 28.6625 133.837C32.325 137.5 38.2125 137.5 50 137.5H100C111.788 137.5 117.675 137.5 121.337 133.837C125 130.175 125 124.281 125 112.5Z" stroke="white" stroke-width="5" stroke-linecap="round" stroke-linejoin="round"/>
<path d="M75 68.7499C79.9728 68.7499 84.7419 70.7253 88.2583 74.2417C91.7746 77.758 93.75 82.5271 93.75 87.4999M75 68.7499C70.0272 68.7499 65.2581 70.7253 61.7417 74.2417C58.2254 77.758 56.25 82.5271 56.25 87.4999M75 68.7499V62.4999M93.75 87.4999H56.25M93.75 87.4999H100M56.25 87.4999H50M50 112.5H100M25 37.4999L71.1563 18.1624C81.4625 13.8437 86.6125 11.6812 90.7188 12.7874C93.3811 13.5028 95.7322 15.0783 97.4063 17.2687C100 20.6562 100 26.2687 100 37.4999" stroke="white" stroke-width="5" stroke-linecap="round" stroke-linejoin="round"/>
</svg>
