<svg width="40" height="54" viewBox="0 0 40 54" fill="none" xmlns="http://www.w3.org/2000/svg">
<path d="M36.6667 0.333328H3.33333C2.44928 0.333328 1.60143 0.684518 0.976311 1.30964C0.351189 1.93476 0 2.78261 0 3.66666V50.3333C0 51.2174 0.351189 52.0652 0.976311 52.6904C1.60143 53.3155 2.44928 53.6667 3.33333 53.6667H36.6667C37.5507 53.6667 38.3986 53.3155 39.0237 52.6904C39.6488 52.0652 40 51.2174 40 50.3333V3.66666C40 2.78261 39.6488 1.93476 39.0237 1.30964C38.3986 0.684518 37.5507 0.333328 36.6667 0.333328ZM11.6667 40.3333H8.33333V37H11.6667V40.3333ZM11.6667 33.6667H8.33333V30.3333H11.6667V33.6667ZM11.6667 27H8.33333V23.6667H11.6667V27ZM11.6667 20.3333H8.33333V17H11.6667V20.3333ZM11.6667 13.6667H8.33333V10.3333H11.6667V13.6667ZM31.6667 40.3333H15V37H31.6667V40.3333ZM31.6667 33.6667H15V30.3333H31.6667V33.6667ZM31.6667 27H15V23.6667H31.6667V27ZM31.6667 20.3333H15V17H31.6667V20.3333ZM31.6667 13.6667H15V10.3333H31.6667V13.6667Z" fill="black"/>
</svg>
