<svg width="150" height="150" viewBox="0 0 150 150" fill="none" xmlns="http://www.w3.org/2000/svg">
<path d="M38.5061 106.306L112.5 106.25M74.9998 18.75C86.9873 18.75 96.9998 27.1875 99.4373 38.4438C102.607 37.5861 105.914 37.361 109.17 37.7815C112.427 38.2019 115.568 39.2597 118.416 40.8943C121.263 42.5289 123.761 44.7083 125.766 47.3082C127.772 49.9081 129.245 52.8775 130.103 56.0469C130.961 59.2162 131.186 62.5235 130.765 65.7799C130.345 69.0362 129.287 72.1778 127.652 75.0254C126.018 77.873 123.838 80.3707 121.239 82.376C118.639 84.3813 115.669 85.8548 112.5 86.7125V131.25H37.4998V86.7125C34.3305 85.854 31.3612 84.3796 28.7617 82.3736C26.1621 80.3676 23.9831 77.8691 22.3491 75.021C20.715 72.1728 19.658 69.0307 19.2383 65.7741C18.8186 62.5174 19.0445 59.21 19.903 56.0406C20.7615 52.8713 22.2358 49.902 24.2419 47.3024C26.2479 44.7029 28.7463 42.5239 31.5945 40.8898C34.4426 39.2558 37.5847 38.1988 40.8414 37.7791C44.098 37.3594 47.4055 37.5852 50.5748 38.4438C51.7863 32.866 54.8699 27.8708 59.3133 24.2882C63.7566 20.7055 69.2921 18.7512 74.9998 18.75Z" stroke="white" stroke-width="5" stroke-linecap="round" stroke-linejoin="round"/>
</svg>
